<svg version="1.1" id="Layer_1" xmlns="http://www.w3.org/2000/svg" xmlns:xlink="http://www.w3.org/1999/xlink" x="0px" y="0px"
	 width="100%" viewBox="0 0 581 351" enable-background="new 0 0 581 351" xml:space="preserve">
<path fill="#000000" opacity="1.000000" stroke="none" 
	d="
M435.000000,352.000000 
	C290.000000,352.000000 145.500000,352.000000 1.000000,352.000000 
	C1.000000,235.000000 1.000000,118.000000 1.000000,1.000000 
	C194.666672,1.000000 388.333344,1.000000 582.000000,1.000000 
	C582.000000,118.000000 582.000000,235.000000 582.000000,352.000000 
	C533.166687,352.000000 484.333344,352.000000 435.000000,352.000000 
M274.006287,38.993233 
	C274.006287,38.993233 274.069244,38.974628 273.950043,38.438992 
	C273.642334,38.268913 273.334595,38.098839 273.007355,37.992516 
	C273.007355,37.992516 273.070923,37.972317 272.957764,37.433239 
	C272.648315,37.264988 272.338867,37.096733 272.007538,36.992344 
	C272.007538,36.992344 272.071289,36.970104 271.957275,36.431061 
	C271.647186,36.264034 271.337097,36.097004 271.006989,35.993244 
	C271.006989,35.993244 271.069885,35.972099 270.954742,35.434189 
	C270.645447,35.266666 270.336121,35.099144 270.006012,34.993893 
	C270.006012,34.993893 270.068176,34.972744 269.954529,34.434143 
	C269.645081,34.266220 269.335663,34.098297 269.006348,33.993172 
	C269.006348,33.993172 269.069397,33.974136 268.949615,33.438953 
	C268.642059,33.268871 268.334503,33.098793 268.008240,32.994267 
	C268.008240,32.994267 268.068054,32.961552 268.028503,32.319584 
	C268.042725,31.891520 268.056976,31.463457 268.010986,31.006016 
	C268.010986,31.006016 268.019501,31.072483 268.553070,30.956337 
	C268.735809,30.655886 268.918549,30.355434 269.744110,29.738033 
	C269.795746,29.417503 269.981110,28.868124 269.879974,28.809031 
	C261.934448,24.165840 253.966461,19.561069 245.995193,15.010417 
	C245.995193,15.010417 246.052521,15.008535 245.849533,14.345353 
	C245.412033,14.287439 244.974518,14.229526 244.118118,14.723536 
	C244.727173,15.841896 245.336227,16.960255 245.990158,18.011755 
	C245.990158,18.011755 245.915604,18.042208 246.028870,18.581205 
	C246.338242,18.748993 246.647629,18.916782 246.988861,19.008638 
	C246.988861,19.008638 246.922714,19.057663 246.957764,19.768433 
	C248.286621,20.871622 249.615463,21.974812 250.990585,23.011467 
	C250.990585,23.011467 250.915634,23.042315 251.028900,23.581236 
	C251.338242,23.749002 251.647583,23.916767 251.989029,24.008327 
	C251.989029,24.008327 251.923111,24.058266 251.957611,24.758087 
	C252.971405,26.435614 253.985199,28.113142 254.338669,30.176092 
	C255.369461,31.782602 256.027893,34.025867 257.496063,34.884384 
	C263.557892,38.429024 269.865082,41.553982 276.764038,44.972065 
	C277.353943,45.214901 277.943878,45.457741 278.533783,45.700577 
	C278.647888,44.970573 279.112762,43.989449 278.805878,43.560822 
	C278.079468,42.546211 276.986572,41.794018 276.005981,40.995399 
	C276.005981,40.995399 276.070557,40.969448 275.958832,40.429729 
	C275.648468,40.263573 275.338135,40.097420 275.006226,39.993687 
	C275.006226,39.993687 275.068573,39.971920 274.953003,39.434391 
	C274.643890,39.266426 274.334778,39.098457 274.006287,38.993233 
M233.371933,180.122467 
	C233.247162,179.736511 233.122391,179.350555 232.675476,179.000610 
	C232.670609,178.748611 232.665741,178.496597 232.660873,178.244598 
	C232.774628,178.476639 232.888382,178.708664 233.658905,178.856979 
	C233.798965,179.232010 233.939041,179.607040 234.217163,179.968979 
	C234.217163,179.968979 234.139572,180.163467 234.139572,180.163467 
	C234.139572,180.163467 234.044571,179.973389 233.371933,180.122467 
M228.596359,172.936859 
	C228.788803,173.478363 228.981247,174.019852 229.196320,174.625000 
	C228.805161,174.024902 228.428391,173.446854 227.392410,172.597427 
	C226.608475,171.019455 225.824554,169.441467 224.343430,167.513519 
	C220.468506,160.557205 218.817383,152.942947 217.306717,145.452866 
	C217.027802,146.694550 214.877991,148.225189 215.111313,149.162827 
	C216.082611,153.066223 217.437225,156.966812 219.306763,160.523895 
	C220.715714,163.204620 223.121475,165.361465 225.524475,168.283600 
	C226.361282,169.781387 227.198105,171.279190 228.596359,172.936859 
M226.212692,90.015770 
	C225.401810,90.512314 224.171066,90.819214 223.847382,91.535828 
	C221.544250,96.634628 219.426483,101.817139 217.069107,107.762489 
	C214.899902,110.310112 212.709137,112.794685 217.477646,115.060333 
	C218.019089,115.317589 217.961502,116.835655 218.181671,117.769096 
	C217.600510,117.733177 217.019363,117.697266 216.438202,117.661346 
	C217.543549,113.599800 218.648895,109.538254 220.063446,105.074417 
	C220.400360,104.104584 220.737274,103.134758 221.529358,101.720245 
	C222.431473,99.791916 223.333603,97.863579 224.774506,95.473297 
	C225.175690,94.630554 225.576889,93.787804 226.381180,92.648628 
	C226.552521,91.900383 226.723862,91.152138 226.212692,90.015770 
M328.451782,81.087296 
	C328.822998,81.522827 329.194214,81.958366 329.565430,82.393906 
	C329.494202,82.449402 329.422943,82.504890 329.351715,82.560387 
	C328.921967,81.988663 328.492249,81.416939 327.336273,81.141586 
	C320.137177,73.898415 317.051758,73.835236 311.319824,81.760483 
	C316.888367,75.802475 322.503998,80.222237 328.451782,81.087296 
M294.204956,151.421402 
	C292.733612,154.411407 291.262268,157.401413 289.152496,161.688782 
	C285.723663,154.610901 282.985687,148.959045 279.677948,142.131134 
	C277.394165,152.428391 275.411957,161.365875 273.429779,170.303375 
	C274.013763,170.525955 274.597717,170.748535 275.181702,170.971100 
	C281.079651,168.586288 277.737885,161.178436 281.668060,156.930191 
	C284.211151,161.847473 286.587677,166.442764 289.232666,171.557053 
	C291.795837,166.685776 293.993988,162.508209 296.864899,157.052017 
	C298.504425,160.726822 299.811066,163.124710 300.645782,165.676971 
	C301.467896,168.190872 301.046417,171.652802 306.436218,170.273407 
	C303.861633,161.144760 301.362396,152.283218 298.486206,142.085236 
	C296.738495,145.988495 295.665741,148.384277 294.204956,151.421402 
M305.006226,37.500797 
	C303.829071,38.670200 302.537170,39.749279 301.518250,41.043289 
	C300.919037,41.804279 300.753448,42.906731 300.392822,43.855602 
	C301.531921,43.896400 302.871765,44.341408 303.769287,43.895710 
	C305.772827,42.900753 307.503448,41.373726 309.438904,40.220631 
	C313.985016,37.512138 318.586029,34.895844 323.293732,32.167538 
	C321.821899,30.360001 320.825073,29.135767 318.980255,26.870129 
	C323.230072,22.898357 327.355530,19.042852 331.694122,14.988131 
	C330.394836,14.988131 329.157349,14.600005 328.448578,15.048124 
	C321.288971,19.574614 314.215881,24.237940 306.865051,29.027996 
	C308.214661,29.815529 309.541016,30.589506 311.285309,31.607357 
	C308.656403,34.061462 307.084290,35.529034 305.006226,37.500797 
M297.411469,97.925751 
	C299.051697,99.989388 300.691925,102.053024 302.453949,104.269897 
	C303.548767,97.630943 298.837433,93.537148 291.343811,94.419281 
	C293.255249,95.460579 295.058472,96.442917 297.411469,97.925751 
M291.877563,65.112732 
	C293.812012,65.112732 295.746460,65.112732 297.808960,65.112732 
	C297.958221,67.345139 298.075226,69.094910 298.192230,70.844681 
	C298.836182,68.178787 299.245544,63.957737 297.945648,63.341366 
	C295.209503,62.043961 291.577026,62.636879 288.312408,62.454010 
	C288.248657,62.967903 288.184906,63.481792 288.121155,63.995686 
	C289.086517,64.366165 290.051880,64.736649 291.877563,65.112732 
M277.983521,66.512230 
	C277.983521,62.311642 277.983521,58.111057 277.983521,53.910469 
	C277.745392,53.924152 277.507233,53.937836 277.269104,53.951515 
	C277.269104,63.723209 277.269104,73.494904 277.269104,83.266594 
	C277.507233,83.268082 277.745361,83.269562 277.983490,83.271049 
	C277.983490,78.015984 277.983490,72.760910 277.983521,66.512230 
M333.098358,86.082878 
	C333.098358,86.082878 332.900177,85.933762 332.900177,85.933762 
	C332.900177,85.933762 333.019470,86.150223 333.098358,86.082878 
M331.505890,88.474785 
	C331.505890,88.474785 331.498230,88.510887 331.505890,88.474785 
z"/>
<path fill="#DCA71E" opacity="1.000000" stroke="none" 
	d="
M294.398987,151.100739 
	C295.665741,148.384277 296.738495,145.988495 298.486206,142.085236 
	C301.362396,152.283218 303.861633,161.144760 306.436218,170.273407 
	C301.046417,171.652802 301.467896,168.190872 300.645782,165.676971 
	C299.811066,163.124710 298.504425,160.726822 296.864899,157.052017 
	C293.993988,162.508209 291.795837,166.685776 289.232666,171.557053 
	C286.587677,166.442764 284.211151,161.847473 281.668060,156.930191 
	C277.737885,161.178436 281.079651,168.586288 275.181702,170.971100 
	C274.597717,170.748535 274.013763,170.525955 273.429779,170.303375 
	C275.411957,161.365875 277.394165,152.428391 279.677948,142.131134 
	C282.985687,148.959045 285.723663,154.610901 289.152496,161.688782 
	C291.262268,157.401413 292.733612,154.411407 294.398987,151.100739 
z"/>
<path fill="#FFC634" opacity="1.000000" stroke="none" 
	d="
M305.259216,37.248703 
	C307.084290,35.529034 308.656403,34.061462 311.285309,31.607357 
	C309.541016,30.589506 308.214661,29.815529 306.865051,29.027996 
	C314.215881,24.237940 321.288971,19.574614 328.448578,15.048124 
	C329.157349,14.600005 330.394836,14.988131 331.694122,14.988131 
	C327.355530,19.042852 323.230072,22.898357 318.980255,26.870129 
	C320.825073,29.135767 321.821899,30.360001 323.293732,32.167538 
	C318.586029,34.895844 313.985016,37.512138 309.438904,40.220631 
	C307.503448,41.373726 305.772827,42.900753 303.769287,43.895710 
	C302.871765,44.341408 301.531921,43.896400 300.392822,43.855598 
	C300.753448,42.906731 300.919037,41.804279 301.518250,41.043289 
	C302.537170,39.749279 303.829071,38.670200 305.259216,37.248703 
z"/>
<path fill="#FFC634" opacity="1.000000" stroke="none" 
	d="
M246.000198,14.953379 
	C253.966461,19.561069 261.934448,24.165840 269.879974,28.809031 
	C269.981110,28.868124 269.795746,29.417503 269.134094,29.934233 
	C268.355865,30.444450 268.187683,30.758469 268.019501,31.072483 
	C268.019501,31.072483 268.010986,31.006016 267.715271,30.963371 
	C267.084503,31.386045 266.749512,31.851364 266.414490,32.316681 
	C266.965668,32.531639 267.516876,32.746593 268.068054,32.961548 
	C268.068054,32.961552 268.008240,32.994267 268.018555,33.266426 
	C268.375702,33.683773 268.722565,33.828957 269.069397,33.974136 
	C269.069397,33.974136 269.006348,33.993172 269.012878,34.268806 
	C269.368988,34.687214 269.718597,34.829983 270.068176,34.972748 
	C270.068176,34.972744 270.006012,34.993893 270.014923,35.269249 
	C270.372528,35.687103 270.721191,35.829601 271.069885,35.972099 
	C271.069885,35.972099 271.006989,35.993244 271.016846,36.268524 
	C271.374908,36.685902 271.723114,36.827999 272.071289,36.970100 
	C272.071289,36.970104 272.007538,36.992344 272.014221,37.268272 
	C272.370941,37.686905 272.720917,37.829609 273.070923,37.972313 
	C273.070923,37.972317 273.007355,37.992516 273.017822,38.265556 
	C273.375305,38.683941 273.722260,38.829288 274.069244,38.974632 
	C274.069244,38.974628 274.006287,38.993233 274.013855,39.268478 
	C274.370483,39.686455 274.719543,39.829189 275.068573,39.971924 
	C275.068573,39.971920 275.006226,39.993687 275.013550,40.269997 
	C275.370758,40.687355 275.720642,40.828403 276.070557,40.969448 
	C276.070557,40.969448 276.005981,40.995399 275.941895,41.349602 
	C275.945923,42.746929 276.014008,43.790051 276.082092,44.833168 
	C269.865082,41.553982 263.557892,38.429024 257.496063,34.884384 
	C256.027893,34.025867 255.369461,31.782602 255.013580,29.979755 
	C258.269653,25.351946 254.670059,24.985491 251.923111,24.058266 
	C251.923111,24.058266 251.989029,24.008327 252.056946,23.696354 
	C251.721802,23.270357 251.318710,23.156334 250.915634,23.042313 
	C250.915634,23.042315 250.990585,23.011467 251.127762,22.696968 
	C249.817535,21.274200 248.370117,20.165934 246.922714,19.057663 
	C246.922714,19.057663 246.988861,19.008638 247.056488,18.696718 
	C246.721268,18.270599 246.318436,18.156403 245.915604,18.042206 
	C245.915604,18.042208 245.990158,18.011755 246.132690,17.673119 
	C246.183563,16.540781 246.091873,15.747078 246.000198,14.953379 
z"/>
<path fill="#D4D4D4" opacity="1.000000" stroke="none" 
	d="
M225.083542,167.751495 
	C223.121475,165.361465 220.715714,163.204620 219.306763,160.523895 
	C217.437225,156.966812 216.082611,153.066223 215.111313,149.162827 
	C214.877991,148.225189 217.027802,146.694550 217.306717,145.452866 
	C218.817383,152.942947 220.468506,160.557205 224.709167,167.662964 
	C225.074905,167.812408 225.083542,167.751495 225.083542,167.751495 
z"/>
<path fill="#D4D4D4" opacity="1.000000" stroke="none" 
	d="
M328.101898,80.737389 
	C322.503998,80.222237 316.888367,75.802475 311.319824,81.760483 
	C317.051758,73.835236 320.137177,73.898415 327.716553,80.969116 
	C328.096832,80.796646 328.101898,80.737389 328.101898,80.737389 
z"/>
<path fill="#E9E9E9" opacity="1.000000" stroke="none" 
	d="
M297.136597,97.675507 
	C295.058472,96.442917 293.255249,95.460579 291.343811,94.419281 
	C298.837433,93.537148 303.548767,97.630943 302.453949,104.269897 
	C300.691925,102.053024 299.051697,99.989388 297.136597,97.675507 
z"/>
<path fill="#E9E9E9" opacity="1.000000" stroke="none" 
	d="
M221.074203,102.164925 
	C220.737274,103.134758 220.400360,104.104584 219.608673,105.498978 
	C218.519180,106.273354 217.884430,106.623177 217.249695,106.973000 
	C219.426483,101.817139 221.544250,96.634628 223.847382,91.535828 
	C224.171066,90.819214 225.401810,90.512314 226.396576,90.439056 
	C226.379669,91.556587 226.178879,92.250824 225.978088,92.945061 
	C225.576889,93.787804 225.175690,94.630554 224.216583,95.822197 
	C222.797165,98.169037 221.935684,100.166977 221.074203,102.164925 
z"/>
<path fill="#797979" opacity="1.000000" stroke="none" 
	d="
M291.447388,65.109924 
	C290.051880,64.736649 289.086517,64.366165 288.121155,63.995686 
	C288.184906,63.481792 288.248657,62.967903 288.312408,62.454010 
	C291.577026,62.636879 295.209503,62.043961 297.945648,63.341366 
	C299.245544,63.957737 298.836182,68.178787 298.192230,70.844681 
	C298.075226,69.094910 297.958221,67.345139 297.808960,65.112732 
	C295.746460,65.112732 293.812012,65.112732 291.447388,65.109924 
z"/>
<path fill="#D4D4D4" opacity="1.000000" stroke="none" 
	d="
M217.159393,107.367744 
	C217.884430,106.623177 218.519180,106.273354 219.454086,105.700119 
	C218.648895,109.538254 217.543549,113.599800 216.438202,117.661346 
	C217.019363,117.697266 217.600510,117.733177 218.181671,117.769096 
	C217.961502,116.835655 218.019089,115.317589 217.477646,115.060333 
	C212.709137,112.794685 214.899902,110.310112 217.159393,107.367744 
z"/>
<path fill="#585858" opacity="1.000000" stroke="none" 
	d="
M277.983521,67.009033 
	C277.983490,72.760910 277.983490,78.015984 277.983490,83.271049 
	C277.745361,83.269562 277.507233,83.268082 277.269104,83.266594 
	C277.269104,73.494904 277.269104,63.723209 277.269104,53.951515 
	C277.507233,53.937836 277.745392,53.924152 277.983521,53.910469 
	C277.983521,58.111057 277.983521,62.311642 277.983521,67.009033 
z"/>
<path fill="#E9E9E9" opacity="1.000000" stroke="none" 
	d="
M251.940369,24.408176 
	C254.670059,24.985491 258.269653,25.351946 255.343750,29.787045 
	C253.985199,28.113142 252.971405,26.435614 251.940369,24.408176 
z"/>
<path fill="#D4D4D4" opacity="1.000000" stroke="none" 
	d="
M221.301788,101.942581 
	C221.935684,100.166977 222.797165,98.169037 223.947189,96.053177 
	C223.333603,97.863579 222.431473,99.791916 221.301788,101.942581 
z"/>
<path fill="#E9E9E9" opacity="1.000000" stroke="none" 
	d="
M246.940247,19.413048 
	C248.370117,20.165934 249.817535,21.274200 251.104614,22.730236 
	C249.615463,21.974812 248.286621,20.871622 246.940247,19.413048 
z"/>
<path fill="#FFE2AB" opacity="1.000000" stroke="none" 
	d="
M276.423065,44.902618 
	C276.014008,43.790051 275.945923,42.746929 275.959808,41.319778 
	C276.986572,41.794018 278.079468,42.546211 278.805878,43.560822 
	C279.112762,43.989449 278.647888,44.970573 278.533783,45.700577 
	C277.943878,45.457741 277.353943,45.214901 276.423065,44.902618 
z"/>
<path fill="#D4D4D4" opacity="1.000000" stroke="none" 
	d="
M225.057770,167.837952 
	C225.824554,169.441467 226.608475,171.019455 227.714905,172.711395 
	C228.037399,172.825363 228.034912,172.776978 228.034912,172.776978 
	C227.198105,171.279190 226.361282,169.781387 225.304016,168.017548 
	C225.083542,167.751495 225.074905,167.812408 225.057770,167.837952 
z"/>
<path fill="#E9E9E9" opacity="1.000000" stroke="none" 
	d="
M245.997696,14.981896 
	C246.091873,15.747078 246.183563,16.540781 246.110260,17.706549 
	C245.336227,16.960255 244.727173,15.841896 244.532440,14.677652 
	C245.315353,14.757357 245.683945,14.882944 246.052521,15.008533 
	C246.052521,15.008535 245.995193,15.010417 245.997696,14.981896 
z"/>
<path fill="#D4D4D4" opacity="1.000000" stroke="none" 
	d="
M226.179626,92.796844 
	C226.178879,92.250824 226.379669,91.556587 226.737839,90.633118 
	C226.723862,91.152138 226.552521,91.900383 226.179626,92.796844 
z"/>
<path fill="#D4D4D4" opacity="1.000000" stroke="none" 
	d="
M328.079681,80.820930 
	C328.492249,81.416939 328.921967,81.988663 329.351715,82.560387 
	C329.422943,82.504890 329.494202,82.449402 329.565430,82.393906 
	C329.194214,81.958366 328.822998,81.522827 328.276855,80.912338 
	C328.101898,80.737389 328.096832,80.796646 328.079681,80.820930 
z"/>
<path fill="#D4D4D4" opacity="1.000000" stroke="none" 
	d="
M228.044510,172.847092 
	C228.428391,173.446854 228.805161,174.024902 229.196320,174.625000 
	C228.981247,174.019852 228.788803,173.478363 228.315643,172.856918 
	C228.034912,172.776978 228.037399,172.825363 228.044510,172.847092 
z"/>
<path fill="#D4D4D4" opacity="1.000000" stroke="none" 
	d="
M333.058899,86.116547 
	C333.019470,86.150223 332.900177,85.933762 332.900177,85.933762 
	C332.900177,85.933762 333.098358,86.082878 333.058899,86.116547 
z"/>
<path fill="#FFE2AB" opacity="1.000000" stroke="none" 
	d="
M268.048279,32.640564 
	C267.516876,32.746593 266.965668,32.531639 266.414490,32.316681 
	C266.749512,31.851364 267.084503,31.386045 267.745361,30.978062 
	C268.056976,31.463457 268.042725,31.891520 268.048279,32.640564 
z"/>
<path fill="#D4D4D4" opacity="1.000000" stroke="none" 
	d="
M233.002136,178.940704 
	C232.888382,178.708664 232.774628,178.476639 232.660873,178.244598 
	C232.665741,178.496597 232.670609,178.748611 232.839447,178.979340 
	C233.003403,178.958069 233.002136,178.940704 233.002136,178.940704 
z"/>
<path fill="#FFE2AB" opacity="1.000000" stroke="none" 
	d="
M269.009521,33.706547 
	C268.722565,33.828957 268.375702,33.683773 268.027893,33.233650 
	C268.334503,33.098793 268.642059,33.268871 269.009521,33.706547 
z"/>
<path fill="#D4D4D4" opacity="1.000000" stroke="none" 
	d="
M234.044571,179.973389 
	C234.044571,179.973389 234.139572,180.163467 234.139572,180.163467 
	C234.139572,180.163467 234.217163,179.968979 234.137512,179.974838 
	C234.057846,179.980698 234.044571,179.973389 234.044571,179.973389 
z"/>
<path fill="#D4D4D4" opacity="1.000000" stroke="none" 
	d="
M233.000519,178.961334 
	C233.122391,179.350555 233.247162,179.736511 233.708252,180.047928 
	C234.044571,179.973389 234.057846,179.980698 234.068481,179.981384 
	C233.939041,179.607040 233.798965,179.232010 233.330521,178.898834 
	C233.002136,178.940704 233.003403,178.958069 233.000519,178.961334 
z"/>
<path fill="#FFC634" opacity="1.000000" stroke="none" 
	d="
M245.951019,14.676943 
	C245.683945,14.882944 245.315353,14.757357 244.741898,14.401691 
	C244.974518,14.229526 245.412033,14.287439 245.951019,14.676943 
z"/>
<path fill="#E9E9E9" opacity="1.000000" stroke="none" 
	d="
M245.972229,18.311707 
	C246.318436,18.156403 246.721268,18.270599 247.040558,18.734684 
	C246.647629,18.916782 246.338242,18.748993 245.972229,18.311707 
z"/>
<path fill="#E9E9E9" opacity="1.000000" stroke="none" 
	d="
M250.972260,23.311771 
	C251.318710,23.156334 251.721802,23.270357 252.040894,23.734457 
	C251.647583,23.916767 251.338242,23.749002 250.972260,23.311771 
z"/>
<path fill="#FFE2AB" opacity="1.000000" stroke="none" 
	d="
M268.286285,31.014412 
	C268.187683,30.758469 268.355865,30.444450 268.812683,30.092709 
	C268.918549,30.355434 268.735809,30.655886 268.286285,31.014412 
z"/>
<path fill="#FFE2AB" opacity="1.000000" stroke="none" 
	d="
M276.014709,40.699589 
	C275.720642,40.828403 275.370758,40.687355 275.024292,40.238785 
	C275.338135,40.097420 275.648468,40.263573 276.014709,40.699589 
z"/>
<path fill="#FFE2AB" opacity="1.000000" stroke="none" 
	d="
M270.011353,34.703445 
	C269.718597,34.829983 269.368988,34.687214 269.022827,34.237411 
	C269.335663,34.098297 269.645081,34.266220 270.011353,34.703445 
z"/>
<path fill="#FFE2AB" opacity="1.000000" stroke="none" 
	d="
M271.012329,35.703140 
	C270.721191,35.829601 270.372528,35.687103 270.025330,35.238113 
	C270.336121,35.099144 270.645447,35.266666 271.012329,35.703140 
z"/>
<path fill="#FFE2AB" opacity="1.000000" stroke="none" 
	d="
M272.014282,36.700577 
	C271.723114,36.827999 271.374908,36.685902 271.026855,36.236893 
	C271.337097,36.097004 271.647186,36.264034 272.014282,36.700577 
z"/>
<path fill="#D4D4D4" opacity="1.000000" stroke="none" 
	d="
M331.502075,88.492836 
	C331.498230,88.510887 331.505890,88.474785 331.502075,88.492836 
z"/>
<path fill="#FFE2AB" opacity="1.000000" stroke="none" 
	d="
M273.014343,37.702774 
	C272.720917,37.829609 272.370941,37.686905 272.025177,37.236343 
	C272.338867,37.096733 272.648315,37.264988 273.014343,37.702774 
z"/>
<path fill="#FFE2AB" opacity="1.000000" stroke="none" 
	d="
M274.009644,38.706810 
	C273.722260,38.829288 273.375305,38.683941 273.027588,38.233677 
	C273.334595,38.098839 273.642334,38.268913 274.009644,38.706810 
z"/>
<path fill="#FFE2AB" opacity="1.000000" stroke="none" 
	d="
M275.010803,39.703156 
	C274.719543,39.829189 274.370483,39.686455 274.023560,39.237106 
	C274.334778,39.098457 274.643890,39.266426 275.010803,39.703156 
z"/>
</svg>