<svg xmlns="http://www.w3.org/2000/svg"  viewBox="0 0 64 64" width="96px" height="96px"><linearGradient id="v0W9Uo_PQQe6qtWWUYSwoa" x1="31.89" x2="31.89" y1="11" y2="53" gradientUnits="userSpaceOnUse" spreadMethod="reflect"><stop offset="0" stop-color="#1a6dff"/><stop offset="1" stop-color="#c822ff"/></linearGradient><path fill="url(#v0W9Uo_PQQe6qtWWUYSwoa)" d="M55.47,15.06C53.36,12.48,50.24,11,46.91,11H6.56l5.6,10.16L5.78,53h10.8l6.21-31h6.72 L23.3,53h10.8l6.21-31h6.72l-6.22,31H51.6l6.18-28.68C58.44,21.03,57.6,17.65,55.47,15.06z M55.82,23.91L49.99,51h-6.74l6.22-31 h-10.8l-6.21,31h-6.72l6.21-31h-10.8l-6.21,31H8.22l6.05-30.16L9.94,13h36.97c2.73,0,5.28,1.21,7.01,3.32 C55.67,18.45,56.36,21.23,55.82,23.91z"/><linearGradient id="v0W9Uo_PQQe6qtWWUYSwob" x1="32.11" x2="32.11" y1="13" y2="51" gradientUnits="userSpaceOnUse" spreadMethod="reflect"><stop offset="0" stop-color="#6dc7ff"/><stop offset="1" stop-color="#e6abff"/></linearGradient><path fill="url(#v0W9Uo_PQQe6qtWWUYSwob)" d="M55.82,23.91L49.99,51h-6.74l6.22-31h-10.8l-6.21,31h-6.72l6.21-31h-10.8l-6.21,31H8.22 l6.05-30.16L9.94,13h36.97c2.73,0,5.28,1.21,7.01,3.32C55.67,18.45,56.36,21.23,55.82,23.91z"/></svg>